<?xml version="1.0" encoding="UTF-8"?>
<svg xmlns="http://www.w3.org/2000/svg" viewBox="0 0 330 80" role="img" aria-labelledby="title desc">
  <title id="title">IndustHub navbar logo</title>
  <desc id="desc">A light fresh IndustHub logo for website navigation.</desc>
  <defs>
    <linearGradient id="line" x1="15" y1="18" x2="68" y2="64" gradientUnits="userSpaceOnUse">
      <stop stop-color="#22c7b8"/>
      <stop offset="1" stop-color="#6cc8ff"/>
    </linearGradient>
    <linearGradient id="soft" x1="8" y1="8" x2="72" y2="72" gradientUnits="userSpaceOnUse">
      <stop stop-color="#effdfa"/>
      <stop offset="1" stop-color="#f7fbff"/>
    </linearGradient>
  </defs>
  <rect x="8" y="8" width="64" height="64" rx="17" fill="url(#soft)" stroke="#c7f0ec" stroke-width="2"/>
  <path d="M23 43c0-12 9-22 21-22 8 0 15 4 19 11" fill="none" stroke="url(#line)" stroke-width="6" stroke-linecap="round"/>
  <path d="M58 37c0 12-9 22-21 22-8 0-15-4-19-11" fill="none" stroke="#f7a46c" stroke-width="6" stroke-linecap="round"/>
  <path d="M28 40h25" fill="none" stroke="#123b55" stroke-width="5" stroke-linecap="round"/>
  <circle cx="22" cy="43" r="3.5" fill="#22c7b8"/>
  <circle cx="59" cy="37" r="3.5" fill="#f97316"/>
  <circle cx="52" cy="53" r="2.4" fill="#22c7b8"/>
  <circle cx="60" cy="53" r="2.4" fill="#f97316"/>
  <circle cx="68" cy="53" r="2.4" fill="#6cc8ff"/>
  <text x="88" y="52" font-family="Inter, Arial, sans-serif" font-size="38" font-weight="850" letter-spacing="-1.2" fill="#ffffff">IndustHub</text>
</svg>
